<svg xmlns="http://www.w3.org/2000/svg" width="430" height="430" fill="none" viewBox="0 0 430 430"><g stroke-linecap="round" stroke-linejoin="round" stroke-width="12"><path stroke="#121331" stroke-miterlimit="10" d="M360.4 178.3H69.9c-8.2 0-14.9-6.6-14.9-14.8V96.9C55 88.7 61.7 82 69.9 82h290.5c8.2 0 14.9 6.7 14.9 14.9v66.6c-.1 8.2-6.7 14.8-14.9 14.8M172.7 347.9H83.2c-8.2 0-14.9-6.7-14.9-14.9v-31.9c0-8.2 6.7-14.9 14.9-14.9h89.5c8.2 0 14.9 6.7 14.9 14.9V333c0 8.3-6.6 14.9-14.9 14.9m174.3 0h-89c-8.2 0-14.9-6.7-14.9-14.9v-31.9c0-8.2 6.7-14.9 14.9-14.9h89c8.2 0 14.9 6.7 14.9 14.9V333c0 8.3-6.7 14.9-14.9 14.9"/><path stroke="#08a88a" stroke-miterlimit="10" d="M104.3 147.7c9.665 0 17.5-7.835 17.5-17.5s-7.835-17.5-17.5-17.5-17.5 7.835-17.5 17.5 7.835 17.5 17.5 17.5"/><path stroke="#08a88a" d="M340.1 115.8h-.1m0 28.7h-.1m-27.029-28.7h-.1m.001 28.7h-.1m-27.051-28.7h-.1m0 28.7h-.1m-27.092-28.7h-.1m0 28.7h-.1m-27.102-28.7h-.1m0 28.7h-.1M203.8 115.8h-.2m.1 28.7h-.2"/><path stroke="#08a88a" stroke-miterlimit="10" d="m178.6 207.5-28.3 53.4m129.7 0-28.4-53.4"/></g></svg>